<?xml version="1.0" encoding="utf-8"?>
<!-- Generator: Adobe Illustrator 24.0.0, SVG Export Plug-In . SVG Version: 6.00 Build 0)  -->
<svg version="1.1" id="Layer_1" xmlns="http://www.w3.org/2000/svg" xmlns:xlink="http://www.w3.org/1999/xlink" x="0px" y="0px"
	 viewBox="0 0 599.5 599.5" style="enable-background:new 0 0 599.5 599.5;" xml:space="preserve">
<style type="text/css">
	.st0{clip-path:url(#SVGID_2_);}
	.st1{fill:#68B6E5;}
	.st2{fill:#0B60AE;}
	.st3{fill:#FFFFFF;}
</style>
<path class="st2" d="M585.1,302.3c0,76.5-29.7,146-78.2,197.7c-2.1,2.3-4.3,4.5-6.5,6.7C448.1,559,375.9,591.3,296,591.3
	c-159.6,0-289-129.4-289-289s129.4-289,289-289S585.1,142.6,585.1,302.3z"/>
<path d="M599.5,591.3h-14.5l-84.7-84.7c2.2-2.2,4.4-4.4,6.5-6.7L599.5,591.3z"/>
<path class="st3" d="M585.1,591.3H296V291.8l210.9,208.1c-2.1,2.3-4.3,4.5-6.5,6.7L585.1,591.3z"/>
<polygon class="st1" points="585.1,591.3 296,591.3 296,302.3 500.4,506.6 "/>
</svg>
